<svg xmlns="http://www.w3.org/2000/svg" xmlns:xlink="http://www.w3.org/1999/xlink" width="3000" zoomAndPan="magnify" viewBox="0 0 2250 2250.000011" height="3000" preserveAspectRatio="xMidYMid meet" version="1.0"><defs><clipPath id="27a02ed5ff"><path d="M 574.078125 573.578125 L 1675.921875 573.578125 L 1675.921875 1675.421875 L 574.078125 1675.421875 Z M 574.078125 573.578125 " clip-rule="nonzero"/></clipPath><clipPath id="8230395550"><path d="M 1125 573.578125 C 820.734375 573.578125 574.078125 820.234375 574.078125 1124.5 C 574.078125 1428.765625 820.734375 1675.421875 1125 1675.421875 C 1429.265625 1675.421875 1675.921875 1428.765625 1675.921875 1124.5 C 1675.921875 820.234375 1429.265625 573.578125 1125 573.578125 " clip-rule="nonzero"/></clipPath><clipPath id="a1d0253058"><path d="M 803.339844 890 L 1446.554688 890 L 1446.554688 1440.046875 L 803.339844 1440.046875 Z M 803.339844 890 " clip-rule="nonzero"/></clipPath><clipPath id="cb4759ebba"><path d="M 1240 808.828125 L 1329 808.828125 L 1329 923 L 1240 923 Z M 1240 808.828125 " clip-rule="nonzero"/></clipPath><clipPath id="8f9a2af24c"><path d="M 924 808.828125 L 1012 808.828125 L 1012 923 L 924 923 Z M 924 808.828125 " clip-rule="nonzero"/></clipPath></defs><g clip-path="url(#27a02ed5ff)"><g clip-path="url(#8230395550)"><path fill="#ffffff" d="M 574.078125 573.578125 L 1675.921875 573.578125 L 1675.921875 1675.421875 L 574.078125 1675.421875 Z M 574.078125 573.578125 " fill-opacity="1" fill-rule="nonzero"/></g></g><g clip-path="url(#a1d0253058)"><path fill="#000000" d="M 1124.945312 1440.046875 L 1179.519531 1410.429688 L 1201.652344 1331.726562 L 1260.429688 1298.433594 L 1285.023438 1220.820312 L 1425.890625 1140.699219 L 1446.28125 1065.703125 L 1308.78125 1145.808594 L 1285.007812 1220.820312 L 1200.660156 1268.777344 L 1124.929688 1226.753906 L 1049.179688 1268.777344 L 964.851562 1220.820312 L 941.078125 1145.808594 L 803.597656 1065.703125 L 823.96875 1140.699219 L 964.851562 1220.820312 L 989.445312 1298.433594 L 1048.222656 1331.726562 L 1070.355469 1410.429688 L 1124.929688 1440.046875 Z M 1048.242188 1331.742188 L 1124.945312 1375.171875 L 1201.652344 1331.742188 L 1124.945312 1287.511719 Z M 1124.945312 1226.15625 L 1205.207031 1179.394531 L 1227.441406 1104.140625 L 1367.488281 1022.414062 L 1391.535156 945.453125 L 1250.480469 1026.226562 L 1226.929688 951.539062 L 1124.929688 890.0625 L 1022.929688 951.539062 L 999.375 1026.226562 L 858.320312 945.453125 L 882.371094 1022.414062 L 1022.414062 1104.140625 L 1044.667969 1179.394531 L 1124.929688 1226.15625 Z M 1124.945312 952.871094 L 1250.5 1026.226562 L 1227.460938 1104.140625 L 1124.945312 1163.960938 L 1022.433594 1104.140625 L 999.394531 1026.226562 Z M 1124.945312 952.871094 " fill-opacity="1" fill-rule="evenodd"/></g><g clip-path="url(#cb4759ebba)"><path fill="#ed3237" d="M 1260.273438 848.308594 L 1240.191406 922.191406 L 1307.652344 883.824219 L 1328.042969 808.828125 Z M 1260.273438 848.308594 " fill-opacity="1" fill-rule="evenodd"/></g><g clip-path="url(#8f9a2af24c)"><path fill="#ed3237" d="M 991.855469 848.308594 L 1011.9375 922.191406 L 944.480469 883.824219 L 924.089844 808.828125 Z M 991.855469 848.308594 " fill-opacity="1" fill-rule="evenodd"/></g></svg>